<mxfile host="app.diagrams.net" modified="2022-06-06T13:53:41.948Z" agent="5.0 (Windows NT 10.0; Win64; x64) AppleWebKit/537.36 (KHTML, like Gecko) Chrome/102.0.5005.63 Safari/537.36" etag="Bju9xT49yLd4znIc71cO" version="19.0.0" type="github">
  <diagram id="GNAxxXV7teZm033zvRFC" name="Page-1">
    <mxGraphModel dx="1060" dy="598" grid="1" gridSize="10" guides="1" tooltips="1" connect="1" arrows="1" fold="1" page="1" pageScale="1" pageWidth="827" pageHeight="1169" math="0" shadow="0">
      <root>
        <mxCell id="0" />
        <mxCell id="1" parent="0" />
        <mxCell id="HQkq9TB4pK0e_T1AHxVl-1" value="" style="endArrow=classic;html=1;rounded=0;" parent="1" edge="1">
          <mxGeometry width="50" height="50" relative="1" as="geometry">
            <mxPoint x="160" y="120" as="sourcePoint" />
            <mxPoint x="270" y="120" as="targetPoint" />
          </mxGeometry>
        </mxCell>
        <mxCell id="HQkq9TB4pK0e_T1AHxVl-2" value="Kontrol Motor" style="rounded=0;whiteSpace=wrap;html=1;" parent="1" vertex="1">
          <mxGeometry x="400" y="90" width="120" height="60" as="geometry" />
        </mxCell>
        <mxCell id="HQkq9TB4pK0e_T1AHxVl-4" value="" style="endArrow=classic;html=1;rounded=0;" parent="1" edge="1">
          <mxGeometry width="50" height="50" relative="1" as="geometry">
            <mxPoint x="350" y="119.5" as="sourcePoint" />
            <mxPoint x="400" y="120" as="targetPoint" />
          </mxGeometry>
        </mxCell>
        <mxCell id="HQkq9TB4pK0e_T1AHxVl-5" value="" style="endArrow=classic;html=1;rounded=0;" parent="1" edge="1">
          <mxGeometry width="50" height="50" relative="1" as="geometry">
            <mxPoint x="520" y="119.66" as="sourcePoint" />
            <mxPoint x="570" y="120.16" as="targetPoint" />
          </mxGeometry>
        </mxCell>
        <mxCell id="HQkq9TB4pK0e_T1AHxVl-6" value="Motor Servo 1 &amp;amp; Motor servo 2" style="rounded=0;whiteSpace=wrap;html=1;" parent="1" vertex="1">
          <mxGeometry x="570" y="90" width="120" height="60" as="geometry" />
        </mxCell>
        <mxCell id="HQkq9TB4pK0e_T1AHxVl-7" value="" style="endArrow=classic;html=1;rounded=0;" parent="1" edge="1">
          <mxGeometry width="50" height="50" relative="1" as="geometry">
            <mxPoint x="690" y="119.57999999999997" as="sourcePoint" />
            <mxPoint x="860" y="120" as="targetPoint" />
          </mxGeometry>
        </mxCell>
        <mxCell id="HQkq9TB4pK0e_T1AHxVl-9" value="Webcam" style="rounded=0;whiteSpace=wrap;html=1;" parent="1" vertex="1">
          <mxGeometry x="530" y="240" width="120" height="60" as="geometry" />
        </mxCell>
        <mxCell id="HQkq9TB4pK0e_T1AHxVl-10" value="Tracking Object" style="rounded=0;whiteSpace=wrap;html=1;" parent="1" vertex="1">
          <mxGeometry x="360" y="240" width="120" height="60" as="geometry" />
        </mxCell>
        <mxCell id="HQkq9TB4pK0e_T1AHxVl-11" value="Lengan Mekanik camera" style="rounded=0;whiteSpace=wrap;html=1;" parent="1" vertex="1">
          <mxGeometry x="700" y="240" width="120" height="60" as="geometry" />
        </mxCell>
        <mxCell id="HQkq9TB4pK0e_T1AHxVl-12" value="" style="endArrow=classic;html=1;rounded=0;fontSize=9;" parent="1" edge="1">
          <mxGeometry width="50" height="50" relative="1" as="geometry">
            <mxPoint x="760" y="120" as="sourcePoint" />
            <mxPoint x="760" y="240" as="targetPoint" />
          </mxGeometry>
        </mxCell>
        <mxCell id="HQkq9TB4pK0e_T1AHxVl-13" value="" style="endArrow=classic;html=1;rounded=0;" parent="1" target="HQkq9TB4pK0e_T1AHxVl-11" edge="1">
          <mxGeometry width="50" height="50" relative="1" as="geometry">
            <mxPoint x="700" y="269.5799999999999" as="sourcePoint" />
            <mxPoint x="750" y="270.0799999999999" as="targetPoint" />
          </mxGeometry>
        </mxCell>
        <mxCell id="HQkq9TB4pK0e_T1AHxVl-14" value="" style="endArrow=classic;html=1;rounded=0;entryX=1;entryY=0.5;entryDx=0;entryDy=0;" parent="1" target="HQkq9TB4pK0e_T1AHxVl-9" edge="1">
          <mxGeometry width="50" height="50" relative="1" as="geometry">
            <mxPoint x="700" y="269.5" as="sourcePoint" />
            <mxPoint x="680" y="270" as="targetPoint" />
          </mxGeometry>
        </mxCell>
        <mxCell id="HQkq9TB4pK0e_T1AHxVl-15" value="" style="endArrow=classic;html=1;rounded=0;entryX=1;entryY=0.5;entryDx=0;entryDy=0;" parent="1" edge="1">
          <mxGeometry width="50" height="50" relative="1" as="geometry">
            <mxPoint x="530" y="269.58" as="sourcePoint" />
            <mxPoint x="480" y="270.08" as="targetPoint" />
          </mxGeometry>
        </mxCell>
        <mxCell id="HQkq9TB4pK0e_T1AHxVl-18" value="" style="edgeStyle=segmentEdgeStyle;endArrow=classic;html=1;rounded=0;fontSize=9;entryX=0.5;entryY=1;entryDx=0;entryDy=0;" parent="1" edge="1">
          <mxGeometry width="50" height="50" relative="1" as="geometry">
            <mxPoint x="360" y="270" as="sourcePoint" />
            <mxPoint x="310" y="160" as="targetPoint" />
          </mxGeometry>
        </mxCell>
        <mxCell id="HQkq9TB4pK0e_T1AHxVl-19" value="" style="shape=sumEllipse;perimeter=ellipsePerimeter;whiteSpace=wrap;html=1;backgroundOutline=1;fontSize=9;" parent="1" vertex="1">
          <mxGeometry x="270" y="80" width="80" height="80" as="geometry" />
        </mxCell>
        <mxCell id="HQkq9TB4pK0e_T1AHxVl-20" value="" style="shape=cross;whiteSpace=wrap;html=1;fontSize=9;fillColor=#000000;" parent="1" vertex="1">
          <mxGeometry x="255" y="100" width="10" height="10" as="geometry" />
        </mxCell>
        <mxCell id="HQkq9TB4pK0e_T1AHxVl-25" value="" style="endArrow=none;html=1;rounded=0;fontSize=9;strokeWidth=3;jumpSize=3;" parent="1" edge="1">
          <mxGeometry width="50" height="50" relative="1" as="geometry">
            <mxPoint x="290" y="170" as="sourcePoint" />
            <mxPoint x="300" y="170" as="targetPoint" />
          </mxGeometry>
        </mxCell>
        <mxCell id="HQkq9TB4pK0e_T1AHxVl-26" value="&lt;font size=&quot;3&quot; face=&quot;Times New Roman&quot;&gt;Output (x&lt;/font&gt;&lt;span style=&quot;color: rgb(84, 84, 84); font-family: Helvetica, &amp;quot;Nimbus Sans L&amp;quot;, Arial, &amp;quot;Liberation Sans&amp;quot;, sans-serif; font-size: 16px; text-align: start; background-color: rgb(255, 255, 255);&quot;&gt;°&lt;/span&gt;&lt;font size=&quot;3&quot; face=&quot;Times New Roman&quot;&gt;, y&lt;/font&gt;&lt;span style=&quot;color: rgb(84, 84, 84); font-family: Helvetica, &amp;quot;Nimbus Sans L&amp;quot;, Arial, &amp;quot;Liberation Sans&amp;quot;, sans-serif; font-size: 16px; text-align: start; background-color: rgb(255, 255, 255);&quot;&gt;°&lt;/span&gt;&lt;font size=&quot;3&quot; face=&quot;Times New Roman&quot;&gt;)&lt;/font&gt;" style="text;html=1;resizable=0;autosize=1;align=center;verticalAlign=middle;points=[];fillColor=none;strokeColor=none;rounded=0;fontSize=9;" parent="1" vertex="1">
          <mxGeometry x="750" y="95" width="110" height="20" as="geometry" />
        </mxCell>
        <mxCell id="HQkq9TB4pK0e_T1AHxVl-27" value="&lt;font size=&quot;3&quot; face=&quot;Times New Roman&quot;&gt;inisialisasi&lt;/font&gt;" style="text;html=1;resizable=0;autosize=1;align=center;verticalAlign=middle;points=[];fillColor=none;strokeColor=none;rounded=0;fontSize=9;" parent="1" vertex="1">
          <mxGeometry x="160" y="90" width="80" height="20" as="geometry" />
        </mxCell>
      </root>
    </mxGraphModel>
  </diagram>
</mxfile>
